<svg xmlns="http://www.w3.org/2000/svg" xml:space="preserve" width="5882" height="8897" style="shape-rendering:geometricPrecision;text-rendering:geometricPrecision;image-rendering:optimizeQuality;fill-rule:evenodd;clip-rule:evenodd" viewBox="0 0 736 1113"><defs><style>.fil0{fill:#fefefe;fill-rule:nonzero}</style></defs><g id="Layer_x0020_1"><g id="_573554304"><path class="fil0" d="M368 0c101 0 193 41 260 108v1c67 66 108 158 108 259v377c0 101-42 193-108 260l-1 1c-67 66-158 107-259 107s-193-41-260-108l-1-1C41 938 0 846 0 745V368c0-101 41-193 108-260l1-1C175 41 267 0 368 0zm0 75c-81 0-154 33-207 86S75 287 75 368v377c0 81 33 154 86 207s126 86 207 86c80 0 154-33 207-86 52-53 85-126 85-207V368c0-81-33-154-85-207-53-53-127-86-207-86z"/><path class="fil0" d="M330 260c0-21 17-37 38-37s38 16 38 37v155c0 21-17 38-38 38s-38-17-38-38V260z"/></g></g></svg>