<svg xmlns="http://www.w3.org/2000/svg" xml:space="preserve" width="5860" height="5715" style="shape-rendering:geometricPrecision;text-rendering:geometricPrecision;image-rendering:optimizeQuality;fill-rule:evenodd;clip-rule:evenodd" viewBox="0 0 680 664"><path d="M340 0C152 0 0 152 0 340c0 150 97 278 233 323 17 3 23-7 23-16s0-30-1-58c-94 20-114-46-114-46-16-39-38-50-38-50-31-21 2-20 2-20 35 2 52 35 52 35 31 52 80 37 99 28 4-22 12-37 22-46-75-8-155-37-155-168 0-37 13-67 35-91-3-9-15-43 3-90 0 0 29-9 94 35 27-8 56-11 85-12 29 1 58 4 85 12 65-44 94-35 94-35 18 47 7 81 3 90 22 24 35 54 35 91 0 131-79 160-155 168 12 11 23 31 23 63 0 46-1 82-1 94 0 9 7 19 24 16 135-45 232-173 232-323C680 152 528 0 340 0z" style="fill:#fff"/></svg>