<svg xmlns="http://www.w3.org/2000/svg" xml:space="preserve" width="5973" height="5973" style="shape-rendering:geometricPrecision;text-rendering:geometricPrecision;image-rendering:optimizeQuality;fill-rule:evenodd;clip-rule:evenodd" viewBox="0 0 707 707"><path d="M707 353C707 158 549 0 353 0 158 0 0 158 0 353c0 196 158 354 353 354 196 0 354-158 354-354zM163 470c0 15 11 27 26 27h60V349l104 78 104-78v148h61c15 0 26-12 26-27V249c0-32-37-50-62-31l-25 18-104 78-104-78-24-18c-26-19-62-1-62 31v221z" style="fill:#fff"/></svg>