<svg xmlns="http://www.w3.org/2000/svg" xml:space="preserve" width="9795" height="8959" style="shape-rendering:geometricPrecision;text-rendering:geometricPrecision;image-rendering:optimizeQuality;fill-rule:evenodd;clip-rule:evenodd" viewBox="0 0 1777 1625"><path d="M1083 542C1083 243 841 0 542 0 242 0 0 243 0 542s242 541 542 541c52 0 103-7 152-21-1 7-1 14-1 21 0 299 243 542 542 542s542-243 542-542-243-541-542-541c-53 0-104 7-152 21v-21zm153 761c-120 0-175-61-175-106 0-23 18-40 41-40 52 0 39 78 135 78 49 0 78-30 78-57 0-17-10-36-42-43l-107-28c-86-21-102-70-102-114 0-92 85-126 165-126 74 0 162 41 162 97 0 24-20 37-43 37-44 0-37-62-125-62-44 0-67 20-67 49 0 28 35 38 65 45l78 18c87 19 110 70 110 119 0 74-58 133-173 133zm333-160c4-19 5-39 5-60 0-188-152-341-339-341-20 0-39 1-59 5-29-17-63-26-100-26-111 0-201 90-201 202 0 37 9 71 26 101-4 19-5 39-5 59 0 189 152 341 339 341 20 0 39-1 58-4 30 16 64 26 101 26 111 0 201-91 201-203 0-36-9-70-26-100zM245 536c158-69 263-114 316-136 150-63 181-74 202-74 4 0 14 1 21 6 5 4 7 10 8 15 0 4 1 14 0 21-8 86-43 294-61 389-8 41-22 54-37 56-31 2-55-21-86-41-47-31-74-50-120-81-54-35-19-55 11-86 8-8 147-135 150-146 0-1 0-7-3-9-3-3-8-2-11-1-5 1-81 51-229 151-21 15-41 22-58 22-20-1-57-11-85-20-33-11-60-17-58-36 1-10 15-20 40-30z" style="fill:#fff"/></svg>