<svg xmlns="http://www.w3.org/2000/svg" xml:space="preserve" width="7393" height="4890" style="shape-rendering:geometricPrecision;text-rendering:geometricPrecision;image-rendering:optimizeQuality;fill-rule:evenodd;clip-rule:evenodd" viewBox="0 0 2210 1462"><defs><style>.fil0{fill:#0f0f0f}</style></defs><g id="Layer_x0020_1"><path class="fil0" d="m620 1459 1297-593c7-4 12-13 12-21 0-9-5-16-12-20L30 2C21-2 12 0 7 7c-7 5-9 16-5 23l588 1419c2 5 7 9 13 10 5 4 10 4 17 0zM2009 963l-608 288c-3 2-6 6-7 9 0 3 2 5 5 6l797 171c4 1 8-1 10-3 4-3 5-7 4-9l-188-460c-1-2-3-3-5-3-2-1-5-1-8 1z"/></g></svg>